HIERARCHY
ROOT Hips
{
	OFFSET	0.00	0.00	0.00
	CHANNELS 6 Xposition Yposition Zposition Zrotation Xrotation Yrotation
	JOINT LeftUpLeg
	{
		OFFSET	 0.126116	-0.065224	 0.014019
		CHANNELS 3 Zrotation Xrotation Yrotation
		JOINT LeftLeg
		{
			OFFSET	 0.000000	 0.569914	 0.000000
			CHANNELS 3 Zrotation Xrotation Yrotation
			JOINT LeftFoot
			{
				OFFSET	 0.000000	 0.544423	 0.000000
				CHANNELS 3 Zrotation Xrotation Yrotation
				JOINT LeftToeBase
				{
					OFFSET	 0.000000	 0.207117	 0.000000
					CHANNELS 3 Zrotation Xrotation Yrotation
					End Site
					{
						OFFSET	 0.000000	 0.207117	 0.000000
					}
				}
			}
		}
	}
	JOINT RightUpLeg
	{
		OFFSET	-0.124023	-0.065224	 0.008373
		CHANNELS 3 Zrotation Xrotation Yrotation
		JOINT RightLeg
		{
			OFFSET	 0.000000	 0.570047	 0.000000
			CHANNELS 3 Zrotation Xrotation Yrotation
			JOINT RightFoot
			{
				OFFSET	 0.000000	 0.544354	 0.000000
				CHANNELS 3 Zrotation Xrotation Yrotation
				JOINT RightToeBase
				{
					OFFSET	 0.000000	 0.207540	 0.000000
					CHANNELS 3 Zrotation Xrotation Yrotation
					End Site
					{
						OFFSET	 0.000000	 0.207540	 0.000000
					}
				}
			}
		}
	}
	JOINT Spine
	{
		OFFSET	 0.000184	 0.117403	 0.007763
		CHANNELS 3 Zrotation Xrotation Yrotation
		JOINT Spine1
		{
			OFFSET	 0.000000	 0.137269	 0.000000
			CHANNELS 3 Zrotation Xrotation Yrotation
			JOINT Spine2
			{
				OFFSET	 0.000000	 0.156879	 0.000000
				CHANNELS 3 Zrotation Xrotation Yrotation
				JOINT LeftShoulder
				{
					OFFSET	 0.080501	 0.160143	 0.002496
					CHANNELS 3 Zrotation Xrotation Yrotation
					JOINT LeftArm
					{
						OFFSET	 0.000000	 0.164363	 0.000000
						CHANNELS 3 Zrotation Xrotation Yrotation
						JOINT LeftForeArm
						{
							OFFSET	 0.000000	 0.364576	 0.000000
							CHANNELS 3 Zrotation Xrotation Yrotation
							JOINT LeftHand
							{
								OFFSET	 0.000000	 0.360812	 0.000000
								CHANNELS 3 Zrotation Xrotation Yrotation
								JOINT LeftHandIndex1
								{
									OFFSET	 0.000000	 0.086006	 0.000000
									CHANNELS 3 Zrotation Xrotation Yrotation
									JOINT LeftHandIndex2
									{
										OFFSET	 0.000000	 0.047237	 0.000000
										CHANNELS 3 Zrotation Xrotation Yrotation
										JOINT LeftHandIndex3
										{
											OFFSET	-0.004284	 0.038165	 0.000551
											CHANNELS 3 Zrotation Xrotation Yrotation
											End Site
											{
												OFFSET	-0.004284	 0.038165	 0.000551
											}
										}
									}
								}
							}
						}
					}
				}
				JOINT Neck
				{
					OFFSET	 0.000000	 0.176489	 0.000000
					CHANNELS 3 Zrotation Xrotation Yrotation
					JOINT Head
					{
						OFFSET	 0.000000	 0.077941	 0.001747
						CHANNELS 3 Zrotation Xrotation Yrotation
						End Site
						{
							OFFSET	 0.000000	 0.077941	 0.001747
						}
					}
				}
				JOINT RightShoulder
				{
					OFFSET	-0.080363	 0.159706	-0.000306
					CHANNELS 3 Zrotation Xrotation Yrotation
					JOINT RightArm
					{
						OFFSET	 0.000000	 0.164196	 0.000000
						CHANNELS 3 Zrotation Xrotation Yrotation
						JOINT RightForeArm
						{
							OFFSET	 0.000000	 0.365611	 0.000000
							CHANNELS 3 Zrotation Xrotation Yrotation
							JOINT RightHand
							{
								OFFSET	 0.000000	 0.360648	 0.000000
								CHANNELS 3 Zrotation Xrotation Yrotation
								JOINT RightHandIndex1
								{
									OFFSET	 0.000000	 0.069977	 0.000000
									CHANNELS 3 Zrotation Xrotation Yrotation
									JOINT RightHandIndex2
									{
										OFFSET	 0.000000	 0.052305	 0.000000
										CHANNELS 3 Zrotation Xrotation Yrotation
										JOINT RightHandIndex3
										{
											OFFSET	 0.009002	 0.042196	 0.000782
											CHANNELS 3 Zrotation Xrotation Yrotation
											End Site
											{
												OFFSET	 0.009002	 0.042196	 0.000782
											}
										}
									}
								}
							}
						}
					}
				}
			}
		}
	}
}
MOTION
Frames:    5
Frame Time: 0.03333334
-0.097579	 1.236388	-0.063107	 10.666360	-6.011413	-159.927200	 175.278900	 33.449600	 30.643450	 13.164510	-40.545600	 15.044930	 17.236150	 82.781120	-24.729030	 1.159814	 26.659340	-2.658781	-172.920200	 9.568052	 13.906010	-1.998989	-24.721740	 8.495469	-1.237615	 69.441030	 0.015134	-2.187066	 38.924270	 3.168999	-6.257160	 6.193730	 21.823280	-7.336496	 11.353440	 7.910584	 3.697048	-10.632010	-6.796341	-103.055100	 2.754686	 93.129650	 37.800830	 47.283640	 2.001148	 24.672500	-1.237449	 0.186787	 8.496779	 10.098760	 43.260070	 3.869070	 55.129040	-2.217327	-8.810066	 61.598420	 9.128006	 6.612565	 34.392170	 0.048819	 3.916470	-12.181570	-3.906672	 5.189240	-9.697878	-12.657430	 102.831000	 27.945570	-97.883710	-61.812910	 41.364570	 6.986732	-5.007962	-0.196792	 0.049972	 21.085590	-2.618435	-19.791100	-4.893232	 13.081150	-0.625789	 14.071560	 36.420200	-8.829363	-8.484763	 29.612310	-1.614063
-0.104263	 1.238259	-0.058180	 8.168414	-5.620376	-163.788100	 175.235200	 30.994540	 26.191930	 12.371470	-38.825540	 14.144520	 16.366470	 81.482350	-22.976890	 1.135473	 26.328890	-2.649209	-175.026700	 8.727949	 11.793790	-1.997840	-24.709070	 11.005240	 6.013279	 73.416540	-8.407134	-1.832327	 35.054450	 2.970538	-5.343029	 6.308132	 20.122470	-7.023891	 10.059470	 7.614089	 3.805064	-9.375780	-5.760430	-104.132500	 2.476908	 92.900280	 24.952100	 54.680880	 5.036300	 12.069740	-0.619931	-0.018347	 10.212610	 10.485460	 46.133920	 3.888106	 55.173090	-2.233011	-8.752602	 61.359440	 9.050683	 6.622053	 34.593770	 0.047761	 4.120276	-10.916460	-3.518127	 3.429346	-9.027258	-10.607740	 105.216300	 25.902490	-97.955920	-40.385780	 48.221910	 0.119878	-5.102519	-0.200521	 0.049636	 4.431680	-7.588506	-38.693470	-4.839840	 12.760570	-0.602721	 14.061990	 36.361380	-8.811062	-8.486190	 29.492960	-1.605586
-0.093774	 1.238974	-0.051175	 5.424951	-3.948937	-170.375500	 177.183800	 27.355280	 19.255800	 11.730710	-37.368080	 13.123540	 13.277460	 80.358160	-19.676870	 1.149012	 26.512960	-2.654513	-176.132500	 8.597374	 6.219560	-2.208020	-26.954410	 11.246050	 10.718570	 76.027490	-12.753260	-1.681039	 33.286630	 2.892453	-3.856568	 6.430202	 16.282340	-5.692794	 7.995789	 6.352568	 3.509217	-7.406972	-4.247474	-104.768000	 2.724694	 92.768750	 6.449846	 57.951080	 17.297620	 15.468600	-0.790717	 0.023528	 6.680595	 12.086000	 40.684270	 3.549158	 52.629540	-1.959271	-8.176258	 58.668540	 8.249535	 6.531527	 32.646800	 0.056262	 4.110870	-9.587819	-2.838110	 2.034357	-8.003059	-7.202556	 107.998200	 23.465510	-97.966960	-12.215330	 50.080650	-14.130660	-14.867910	-0.578400	-0.016936	 3.382837	-8.596496	-39.262390	-4.256776	 10.660260	-0.292733	 13.576030	 33.093690	-7.833235	-8.521297	 25.530430	-1.331197
-0.073632	 1.238640	-0.043548	 3.311622	-2.564471	-176.040100	 179.202100	 24.308130	 13.377970	 11.016170	-35.668910	 12.317660	 10.868300	 79.370290	-17.541850	 1.149184	 26.515360	-2.654580	-176.257700	 7.729802	 1.742674	-2.174992	-26.607270	 11.306130	 14.556620	 78.097210	-16.868620	-1.439245	 30.312670	 2.776595	-2.719159	 6.356085	 12.044390	-3.474005	 6.212843	 4.642284	 2.657453	-5.641355	-2.822412	-105.468700	 3.263390	 92.740680	-5.218643	 57.332660	 28.975440	 19.287120	-0.979223	 0.082576	 1.461314	 13.144790	 38.881640	 3.086196	 48.266090	-1.598565	-7.470644	 54.369350	 7.179042	 6.377190	 29.216060	 0.062257	 4.084219	-8.708958	-2.216244	 1.150819	-6.972518	-3.976791	 110.339600	 21.260980	-97.820390	-0.998836	 48.271500	-19.392220	-7.954860	-0.311993	 0.036877	 4.576665	-8.460506	-29.513710	-3.364165	 7.629707	 0.221880	 12.967450	 27.902770	-6.412820	-8.533715	 19.184210	-0.912753
-0.050445	 1.239382	-0.032612	 2.158694	-1.719287	-179.924800	-178.500100	 22.101920	 9.206238	 10.190590	-33.606150	 9.902353	-0.763707	 78.249980	-6.473466	 1.149790	 26.523640	-2.654820	-175.678200	 7.924135	-1.855225	-2.179858	-26.658580	 10.934470	 16.685470	 78.685080	-18.174260	-1.351148	 29.183730	 2.737280	-1.539127	 6.157834	 8.711999	-2.130044	 5.654476	 3.570365	 2.190126	-5.073833	-1.850164	-106.460800	 3.788505	 92.730610	-5.941458	 55.355010	 30.215530	 22.956710	-1.156229	 0.150956	 2.992817	 10.096920	 30.541100	 2.049163	 36.326680	-0.896171	-6.337211	 42.093500	 4.952179	 5.958770	 19.394000	 0.024602	 4.007237	-8.222350	-1.697093	 0.489241	-6.535045	-1.535810	 112.793000	 19.140180	-97.637640	 2.234621	 46.765290	-17.975340	-5.119350	-0.201158	 0.049616	 5.288389	-1.441836	-26.221540	-2.822091	 5.779593	 0.571675	 12.677950	 24.715510	-5.603650	-8.518851	 15.528300	-0.679024
